<svg width="21" height="22" viewBox="0 0 21 22" fill="none" xmlns="http://www.w3.org/2000/svg">
<path d="M3.31251 5.24999C4.37106 5.24999 5.22918 4.39187 5.22918 3.33332C5.22918 2.27478 4.37106 1.41666 3.31251 1.41666C2.25396 1.41666 1.39584 2.27478 1.39584 3.33332C1.39584 4.39187 2.25396 5.24999 3.31251 5.24999Z" stroke="white" stroke-width="2"/>
<path d="M1.39584 8.125H5.22918V20.1042H1.39584V8.125ZM9.06251 12.6771V20.1042H12.4167V13.3958C12.4167 12.1979 13.1354 11.2396 14.3333 11.2396C15.5313 11.2396 16.25 12.4375 16.25 13.3958V20.1042H19.6042V12.6771C19.6042 11.2396 17.9271 8.125 14.3333 8.125C10.7396 8.125 9.06251 11.2396 9.06251 12.6771Z" stroke="white" stroke-width="2" stroke-linejoin="round"/>
</svg>
