<svg width="23" height="22" viewBox="0 0 23 22" fill="none" xmlns="http://www.w3.org/2000/svg">
<path fill-rule="evenodd" clip-rule="evenodd" d="M7.15397 0.521593C8.27809 0.469843 8.63651 0.458344 11.5 0.458344C14.3635 0.458344 14.7219 0.470802 15.8451 0.521593C16.9683 0.572385 17.7349 0.751594 18.4058 1.0113C19.1082 1.27676 19.7455 1.69172 20.2726 2.22839C20.8093 2.75451 21.2233 3.39084 21.4878 4.09426C21.7484 4.76509 21.9267 5.53176 21.9784 6.65301C22.0302 7.77905 22.0417 8.13747 22.0417 11C22.0417 13.8635 22.0292 14.2219 21.9784 15.3461C21.9276 16.4673 21.7484 17.234 21.4878 17.9048C21.2233 18.6083 20.8086 19.2457 20.2726 19.7726C19.7455 20.3093 19.1082 20.7233 18.4058 20.9878C17.7349 21.2484 16.9683 21.4267 15.847 21.4784C14.7219 21.5302 14.3635 21.5417 11.5 21.5417C8.63651 21.5417 8.27809 21.5292 7.15397 21.4784C6.03272 21.4276 5.26605 21.2484 4.59522 20.9878C3.89173 20.7232 3.25434 20.3085 2.72743 19.7726C2.19112 19.2462 1.7761 18.6091 1.5113 17.9058C1.25159 17.2349 1.07334 16.4683 1.02159 15.347C0.969843 14.221 0.958344 13.8626 0.958344 11C0.958344 8.13651 0.970802 7.77809 1.02159 6.65493C1.07239 5.53176 1.25159 4.76509 1.5113 4.09426C1.77649 3.39092 2.19183 2.75385 2.72839 2.22743C3.25455 1.69124 3.8913 1.27623 4.59426 1.0113C5.26509 0.751594 6.03176 0.573344 7.15301 0.521593H7.15397ZM15.7598 2.41909C14.6481 2.3683 14.3146 2.35776 11.5 2.35776C8.68539 2.35776 8.35189 2.3683 7.24022 2.41909C6.21193 2.46605 5.65418 2.63759 5.28234 2.7823C4.79072 2.97397 4.43901 3.20109 4.07005 3.57005C3.7203 3.91031 3.45114 4.32453 3.2823 4.78234C3.13759 5.15418 2.96605 5.71193 2.91909 6.74022C2.8683 7.85189 2.85776 8.18539 2.85776 11C2.85776 13.8146 2.8683 14.1481 2.91909 15.2598C2.96605 16.2881 3.13759 16.8458 3.2823 17.2177C3.45097 17.6748 3.72026 18.0898 4.07005 18.43C4.41026 18.7798 4.82522 19.0491 5.28234 19.2177C5.65418 19.3624 6.21193 19.534 7.24022 19.5809C8.35189 19.6317 8.68443 19.6423 11.5 19.6423C14.3156 19.6423 14.6481 19.6317 15.7598 19.5809C16.7881 19.534 17.3458 19.3624 17.7177 19.2177C18.2093 19.0261 18.561 18.7989 18.93 18.43C19.2798 18.0898 19.5491 17.6748 19.7177 17.2177C19.8624 16.8458 20.034 16.2881 20.0809 15.2598C20.1317 14.1481 20.1423 13.8146 20.1423 11C20.1423 8.18539 20.1317 7.85189 20.0809 6.74022C20.034 5.71193 19.8624 5.15418 19.7177 4.78234C19.5261 4.29072 19.2989 3.93901 18.93 3.57005C18.5897 3.22033 18.1755 2.95117 17.7177 2.7823C17.3458 2.63759 16.7881 2.46605 15.7598 2.41909ZM10.1536 14.2497C10.9055 14.5627 11.7428 14.605 12.5225 14.3692C13.3021 14.1335 13.9758 13.6344 14.4283 12.9572C14.8808 12.2799 15.0842 11.4666 15.0037 10.6561C14.9232 9.84554 14.5638 9.08811 13.9869 8.51313C13.6191 8.14559 13.1744 7.86416 12.6848 7.68911C12.1952 7.51406 11.6729 7.44973 11.1555 7.50077C10.638 7.5518 10.1384 7.71693 9.69241 7.98426C9.24645 8.25159 8.86531 8.61447 8.57643 9.04678C8.28754 9.4791 8.09811 9.97008 8.02175 10.4844C7.9454 10.9987 7.98403 11.5235 8.13486 12.0211C8.28569 12.5187 8.54497 12.9767 8.89403 13.362C9.2431 13.7474 9.67326 14.0506 10.1536 14.2497ZM7.66859 7.16859C8.17174 6.66544 8.76907 6.26633 9.42646 5.99402C10.0839 5.72172 10.7885 5.58157 11.5 5.58157C12.2116 5.58157 12.9162 5.72172 13.5736 5.99402C14.231 6.26632 14.8283 6.66544 15.3314 7.16859C15.8346 7.67174 16.2337 8.26907 16.506 8.92646C16.7783 9.58386 16.9185 10.2885 16.9185 11C16.9185 11.7116 16.7783 12.4162 16.506 13.0736C16.2337 13.731 15.8346 14.3283 15.3314 14.8314C14.3153 15.8476 12.9371 16.4185 11.5 16.4185C10.063 16.4185 8.68475 15.8476 7.66859 14.8314C6.65244 13.8153 6.08157 12.4371 6.08157 11C6.08157 9.56295 6.65244 8.18475 7.66859 7.16859ZM18.1202 6.38851C18.2449 6.27089 18.3447 6.12945 18.4137 5.97257C18.4828 5.81568 18.5196 5.64654 18.5221 5.47515C18.5246 5.30376 18.4927 5.13362 18.4283 4.97479C18.3638 4.81595 18.2682 4.67167 18.147 4.55046C18.0258 4.42926 17.8815 4.33361 17.7227 4.26917C17.5638 4.20474 17.3937 4.17282 17.2223 4.17532C17.0509 4.17782 16.8818 4.21468 16.7249 4.28372C16.568 4.35276 16.4265 4.45258 16.3089 4.57726C16.0802 4.81975 15.9549 5.14184 15.9598 5.47515C15.9647 5.80847 16.0992 6.12677 16.335 6.36248C16.5707 6.5982 16.889 6.73277 17.2223 6.73763C17.5556 6.74249 17.8777 6.61725 18.1202 6.38851Z" fill="white"/>
</svg>
