<svg width="21" height="16" viewBox="0 0 21 16" fill="none" xmlns="http://www.w3.org/2000/svg">
<path d="M20.5625 7.93712C20.5625 7.88771 20.5625 7.83156 20.5603 7.76642C20.558 7.58449 20.5535 7.38009 20.549 7.16222C20.5311 6.53556 20.4996 5.91114 20.4502 5.32267C20.3828 4.51183 20.284 3.83575 20.1492 3.32814C20.007 2.79839 19.7282 2.31526 19.3408 1.92702C18.9533 1.53877 18.4708 1.25903 17.9413 1.11573C17.3057 0.945032 16.0613 0.839465 14.3094 0.774329C13.4761 0.742883 12.5844 0.722668 11.6927 0.711438C11.3805 0.706946 11.0907 0.7047 10.8302 0.702454H10.1698C9.90928 0.7047 9.61953 0.706946 9.30732 0.711438C8.41562 0.722668 7.52393 0.742883 6.69062 0.774329C4.93867 0.841711 3.69209 0.947278 3.05869 1.11573C2.52906 1.25867 2.04631 1.5383 1.6588 1.9266C1.27129 2.3149 0.992645 2.79822 0.850781 3.32814C0.71377 3.83575 0.617188 4.51183 0.549805 5.32267C0.500391 5.91114 0.468945 6.53556 0.450977 7.16222C0.444238 7.38009 0.441992 7.58449 0.439746 7.76642C0.439746 7.83156 0.4375 7.88771 0.4375 7.93712V8.0629C0.4375 8.11232 0.4375 8.16847 0.439746 8.23361C0.441992 8.41554 0.446484 8.61993 0.450977 8.8378C0.468945 9.46447 0.500391 10.0889 0.549805 10.6774C0.617188 11.4882 0.716016 12.1643 0.850781 12.6719C1.13828 13.7478 1.98281 14.5968 3.05869 14.8843C3.69209 15.055 4.93867 15.1606 6.69062 15.2257C7.52393 15.2571 8.41562 15.2774 9.30732 15.2886C9.61953 15.2931 9.90928 15.2953 10.1698 15.2976H10.8302C11.0907 15.2953 11.3805 15.2931 11.6927 15.2886C12.5844 15.2774 13.4761 15.2571 14.3094 15.2257C16.0613 15.1583 17.3079 15.0527 17.9413 14.8843C19.0172 14.5968 19.8617 13.75 20.1492 12.6719C20.2862 12.1643 20.3828 11.4882 20.4502 10.6774C20.4996 10.0889 20.5311 9.46447 20.549 8.8378C20.5558 8.61993 20.558 8.41554 20.5603 8.23361C20.5603 8.16847 20.5625 8.11232 20.5625 8.0629V7.93712ZM18.9453 8.05392C18.9453 8.10109 18.9453 8.15275 18.9431 8.21339C18.9408 8.38859 18.9363 8.58175 18.9318 8.79064C18.9161 9.3881 18.8847 9.98556 18.8375 10.5403C18.7769 11.2636 18.6915 11.8566 18.5859 12.2541C18.4467 12.773 18.0379 13.184 17.5213 13.321C17.0496 13.4468 15.8614 13.5479 14.2465 13.6085C13.4289 13.64 12.5484 13.6602 11.6702 13.6714C11.3625 13.6759 11.0772 13.6781 10.8212 13.6781H10.1788L9.32979 13.6714C8.45156 13.6602 7.57334 13.64 6.75352 13.6085C5.13857 13.5456 3.94814 13.4468 3.47871 13.321C2.96211 13.1818 2.55332 12.773 2.41406 12.2541C2.3085 11.8566 2.22314 11.2636 2.1625 10.5403C2.11533 9.98556 2.08613 9.3881 2.06816 8.79064C2.06143 8.58175 2.05918 8.38634 2.05693 8.21339C2.05693 8.15275 2.05469 8.09884 2.05469 8.05392V7.94611C2.05469 7.89894 2.05469 7.84728 2.05693 7.78663C2.05918 7.61144 2.06367 7.41827 2.06816 7.20939C2.08389 6.61193 2.11533 6.01446 2.1625 5.45968C2.22314 4.73644 2.3085 4.14347 2.41406 3.74591C2.55332 3.22706 2.96211 2.81603 3.47871 2.67902C3.95039 2.55323 5.13857 2.45216 6.75352 2.39152C7.57109 2.36007 8.45156 2.33986 9.32979 2.32863C9.6375 2.32413 9.92275 2.32189 10.1788 2.32189H10.8212L11.6702 2.32863C12.5484 2.33986 13.4267 2.36007 14.2465 2.39152C15.8614 2.45441 17.0519 2.55323 17.5213 2.67902C18.0379 2.81827 18.4467 3.22706 18.5859 3.74591C18.6915 4.14347 18.7769 4.73644 18.8375 5.45968C18.8847 6.01446 18.9139 6.61193 18.9318 7.20939C18.9386 7.41827 18.9408 7.61368 18.9431 7.78663C18.9431 7.84728 18.9453 7.90118 18.9453 7.94611V8.05392ZM8.50098 11.0098L13.7119 7.97755L8.50098 4.99025V11.0098Z" fill="white"/>
</svg>
