<svg width="19" height="18" viewBox="0 0 19 18" fill="none" xmlns="http://www.w3.org/2000/svg">
<path d="M17.7656 0.015625H1.23438C0.836816 0.015625 0.515625 0.336816 0.515625 0.734375V17.2656C0.515625 17.6632 0.836816 17.9844 1.23438 17.9844H17.7656C18.1632 17.9844 18.4844 17.6632 18.4844 17.2656V0.734375C18.4844 0.336816 18.1632 0.015625 17.7656 0.015625ZM17.0469 16.5469H12.9118V11.026H15.2478L15.5981 8.31494H12.9118V6.5832C12.9118 5.79707 13.1297 5.2625 14.255 5.2625H15.6902V2.83672C15.4409 2.80303 14.5896 2.72891 13.5969 2.72891C11.526 2.72891 10.1087 3.99346 10.1087 6.31367V8.3127H7.76826V11.0237H10.1109V16.5469H1.95312V1.45312H17.0469V16.5469Z" fill="white"/>
</svg>
