<svg width="10" height="11" viewBox="0 0 10 11" fill="none" xmlns="http://www.w3.org/2000/svg">
<path d="M7.14694 6.78931H6.69525L6.53516 6.63493C7.09548 5.98313 7.43282 5.13694 7.43282 4.21641C7.43282 2.16381 5.76901 0.5 3.71641 0.5C1.66381 0.5 0 2.16381 0 4.21641C0 6.26901 1.66381 7.93282 3.71641 7.93282C4.63694 7.93282 5.48313 7.59548 6.13493 7.03516L6.28931 7.19525V7.64694L9.14808 10.5L10 9.64808L7.14694 6.78931ZM3.71641 6.78931C2.29274 6.78931 1.14351 5.64008 1.14351 4.21641C1.14351 2.79274 2.29274 1.64351 3.71641 1.64351C5.14008 1.64351 6.28931 2.79274 6.28931 4.21641C6.28931 5.64008 5.14008 6.78931 3.71641 6.78931Z" fill="black"/>
</svg>
