<svg width="10" height="16" viewBox="0 0 10 16" fill="none" xmlns="http://www.w3.org/2000/svg">
<path d="M8.75 10.5469V6.64062C8.75 4.24219 7.725 2.23437 5.9375 1.70312V1.17188C5.9375 0.523438 5.51875 0 5 0C4.48125 0 4.0625 0.523438 4.0625 1.17188V1.70312C2.26875 2.23437 1.25 4.23438 1.25 6.64062V10.5469L0 12.1094V12.8906H10V12.1094L8.75 10.5469ZM5.625 10.5469H4.375V8.98438H5.625V10.5469ZM5.625 7.42188H4.375V4.29688H5.625V7.42188ZM5 15.2344C5.6875 15.2344 6.25 14.5312 6.25 13.6719H3.75C3.75 14.5312 4.30625 15.2344 5 15.2344Z" fill="black" fill-opacity="0.8"/>
</svg>
