<svg width="20" height="21" viewBox="0 0 20 21" fill="none" xmlns="http://www.w3.org/2000/svg">
<path d="M20 4.33317L15.4 0.5L14.11 2.01936L18.71 5.85253L20 4.33317ZM5.88 2.01936L4.6 0.5L0 4.32324L1.29 5.8426L5.88 2.01936ZM10.5 6.59732H9V12.5556L13.75 15.3858L14.5 14.1643L10.5 11.8108V6.59732ZM10 2.62512C5.03 2.62512 1 6.62711 1 11.5626C1 16.498 5.02 20.5 10 20.5C14.97 20.5 19 16.498 19 11.5626C19 6.62711 14.97 2.62512 10 2.62512ZM10 18.5139C6.13 18.5139 3 15.4057 3 11.5626C3 7.71946 6.13 4.61122 10 4.61122C13.87 4.61122 17 7.71946 17 11.5626C17 15.4057 13.87 18.5139 10 18.5139Z" fill="black" fill-opacity="0.6"/>
</svg>
